<?xml version="1.0" encoding="UTF-8" standalone="no"?>
<svg
   width="128"
   height="128"
   viewBox="0 0 128 128"
   version="1.1"
   xml:space="preserve"
   style="clip-rule:evenodd;fill-rule:evenodd;stroke-linejoin:round;stroke-miterlimit:2"
   id="svg4"
   xmlns="http://www.w3.org/2000/svg"
   xmlns:svg="http://www.w3.org/2000/svg"><defs
   id="defs4" />
    <g
   transform="translate(-3.585,-12.015)"
   id="g1"
   style="display:inline">
        <path
   d="m 67.59,101.18 c -9.58,0 -17.37,-7.79 -17.37,-17.37 0,-9.58 7.79,-17.37 17.37,-17.37 2.01,0 3.63,1.63 3.63,3.63 0,2 -1.63,3.63 -3.63,3.63 -5.57,0 -10.11,4.53 -10.11,10.11 0,5.58 4.53,10.11 10.11,10.11 5.58,0 10.11,-4.53 10.11,-10.11 0,-2.45 -0.89,-4.82 -2.52,-6.66 -1.33,-1.51 -1.18,-3.8 0.33,-5.13 1.51,-1.33 3.8,-1.18 5.13,0.33 2.79,3.17 4.33,7.24 4.33,11.46 0,9.58 -7.79,17.37 -17.37,17.37 z"
   style="clip-rule:evenodd;fill:#53da62;fill-opacity:1;fill-rule:nonzero;stroke-linejoin:round;stroke-miterlimit:2"
   id="path3" /><path
   d="m 67.59,117.53 c -18.6,0 -33.73,-15.13 -33.73,-33.73 0,-18.6 14.35,-33.14 32.66,-33.71 1.99,-0.06 3.68,1.51 3.75,3.52 0.06,2.01 -1.51,3.68 -3.52,3.75 -14.13,0.44 -25.62,12.3 -25.62,26.45 0,14.15 11.87,26.46 26.46,26.46 14.59,0 26.46,-11.87 26.46,-26.46 0,-8.63 -4.24,-16.74 -11.35,-21.71 -1.65,-1.15 -2.05,-3.42 -0.9,-5.06 1.15,-1.64 3.42,-2.05 5.06,-0.9 9.05,6.32 14.45,16.66 14.45,27.66 0,18.6 -15.13,33.73 -33.73,33.73 z"
   style="clip-rule:evenodd;fill:#23da62;fill-opacity:1;fill-rule:nonzero;stroke-linejoin:round;stroke-miterlimit:2"
   id="path2" /><path
   d="m 67.59,133.88 c -27.61,0 -50.08,-22.47 -50.08,-50.08 0,-27.61 22.47,-50.08 50.08,-50.08 2.01,0 3.63,1.63 3.63,3.63 0,2 -1.63,3.63 -3.63,3.63 -23.61,0 -42.81,19.21 -42.81,42.81 0,23.6 19.21,42.81 42.81,42.81 23.6,0 42.81,-19.2 42.81,-42.81 0,-15.15 -8.13,-29.31 -21.22,-36.98 -1.73,-1.01 -2.31,-3.24 -1.3,-4.97 1.01,-1.73 3.24,-2.32 4.97,-1.3 15.31,8.96 24.81,25.53 24.81,43.25 0,27.61 -22.47,50.08 -50.08,50.08 z"
   style="fill:#23da62;fill-opacity:1;fill-rule:nonzero"
   id="path1" />
    </g><g
   transform="translate(-3.585,-12.015)"
   id="g8"
   style="clip-rule:evenodd;display:inline;fill-rule:evenodd;stroke-linejoin:round;stroke-miterlimit:2">
        <path
   id="path6"
   style="clip-rule:evenodd;fill:#1ebb54;fill-opacity:1;fill-rule:nonzero;stroke-linejoin:round;stroke-miterlimit:2"
   d="m 67.590859,66.440781 c -3.644952,0 -7.031887,1.127821 -9.828125,3.052735 C 56.595097,74.934382 56.839146,80.500584 57.48,83.81 c 0,-5.58 4.540859,-10.109453 10.110859,-10.109453 2,0 3.628907,-1.630859 3.628907,-3.630859 0,-2 -1.618907,-3.628907 -3.628907,-3.628907 z" /><path
   id="path7"
   style="clip-rule:evenodd;display:inline;fill:#1ebb54;fill-opacity:1;fill-rule:nonzero;stroke-linejoin:round;stroke-miterlimit:2"
   d="m 66.520547,50.089219 c -2.506322,0.07802 -4.938254,0.418026 -7.269531,0.99414 0.12206,0.622915 0.154643,1.269142 0.09375,1.914063 l -0.564453,5.880859 c 2.509099,-0.901803 5.187624,-1.430975 7.968749,-1.517578 2.01,-0.07 3.581485,-1.74 3.521485,-3.75 -0.07,-2.01 -1.76,-3.581484 -3.75,-3.521484 z" /><path
   id="path8"
   style="clip-rule:evenodd;display:inline;fill:#1ebb54;fill-opacity:1;fill-rule:nonzero;stroke-linejoin:round;stroke-miterlimit:2"
   d="m 67.590859,33.720078 c -5.490167,0 -10.777171,0.888619 -15.724609,2.529297 -0.105576,0.762875 -0.162109,1.467136 -0.162109,2.087891 0,1.882542 0.507626,3.648479 1.392578,5.167968 4.527881,-1.633914 9.40945,-2.52539 14.49414,-2.52539 2,0 3.628907,-1.628906 3.628907,-3.628906 0,-2 -1.618907,-3.63086 -3.628907,-3.63086 z" />
    </g>
    
    
    
<path
   d="m 69.455,33.315 c 2.92,-1.82 4.87,-5.06 4.87,-8.75 0,-5.69 -4.63,-18.43 -10.32,-18.43 -5.69,0 -10.32,12.74 -10.32,18.43 0,3.69 1.95,6.93 4.87,8.75 1.98,1.24 2.99,3.58 2.77,5.91 l -2.92,30.45 c -0.37,3.47 2.67,6.52 6.15,6.15 3.1,-0.3 5.37,-3.05 5.07,-6.15 0,0 -1.68,-17.45 -2.93,-30.45 -0.22,-2.33 0.78,-4.67 2.77,-5.9 z"
   style="clip-rule:evenodd;fill:#ffffff;display:inline;fill-rule:nonzero;stroke-linejoin:round;stroke-miterlimit:2"
   id="path4" /></svg>
